<svg width="46" height="46" viewBox="0 0 46 46" fill="none" xmlns="http://www.w3.org/2000/svg">
<rect width="46" height="46" rx="12" fill="#7E28FF"/>
<path d="M15.8187 28.1812C14.9198 27.2833 15.5156 25.3958 15.0583 24.2896C14.5844 23.149 12.8438 22.2208 12.8438 21C12.8438 19.7792 14.5844 18.8521 15.0583 17.7104C15.5156 16.6052 14.9198 14.7167 15.8187 13.8187C16.7167 12.9198 18.6052 13.5156 19.7104 13.0583C20.8562 12.5844 21.7792 10.8438 23 10.8438C24.2208 10.8438 25.149 12.5844 26.2896 13.0583C27.3958 13.5156 29.2833 12.9198 30.1812 13.8187C31.0802 14.7167 30.4844 16.6042 30.9417 17.7104C31.4156 18.8562 33.1562 19.7792 33.1562 21C33.1562 22.2208 31.4156 23.149 30.9417 24.2896C30.4844 25.3958 31.0802 27.2833 30.1812 28.1812C29.2833 29.0802 27.3958 28.4844 26.2896 28.9417C25.149 29.4156 24.2208 31.1562 23 31.1562C21.7792 31.1562 20.8521 29.4156 19.7104 28.9417C18.6052 28.4844 16.7167 29.0802 15.8187 28.1812Z" stroke="white" stroke-width="1.5625" stroke-linecap="round" stroke-linejoin="round"/>
<path d="M19.0938 21.7812L21.4375 24.125L26.9062 18.6562" stroke="white" stroke-width="1.5625" stroke-linecap="round" stroke-linejoin="round"/>
</svg>
