<svg width="20" height="20" viewBox="0 0 20 20" fill="none" xmlns="http://www.w3.org/2000/svg">
<path d="M10.6961 9.06974C10.6961 8.68444 10.3838 8.37207 9.99846 8.37207C9.61315 8.37207 9.30078 8.68444 9.30078 9.06974V14.6511C9.30078 15.0364 9.61315 15.3488 9.99846 15.3488C10.3838 15.3488 10.6961 15.0364 10.6961 14.6511V9.06974Z" fill="#1D005B" fill-opacity="0.2"/>
<path fill-rule="evenodd" clip-rule="evenodd" d="M10 0C4.47715 0 0 4.47715 0 10C0 15.5229 4.47715 20 10 20C15.5229 20 20 15.5229 20 10C20 4.47715 15.5229 0 10 0ZM1.39535 10C1.39535 5.24779 5.24779 1.39535 10 1.39535C14.7522 1.39535 18.6047 5.24779 18.6047 10C18.6047 14.7522 14.7522 18.6047 10 18.6047C5.24779 18.6047 1.39535 14.7522 1.39535 10Z" fill="#1D005B" fill-opacity="0.2"/>
<path d="M10.9308 6.27887C10.9308 6.79261 10.5143 7.2091 10.0005 7.2091C9.48678 7.2091 9.07031 6.79261 9.07031 6.27887C9.07031 5.76512 9.48678 5.34863 10.0005 5.34863C10.5143 5.34863 10.9308 5.76512 10.9308 6.27887Z" fill="#1D005B" fill-opacity="0.2"/>
</svg>
