<svg width="56" height="56" viewBox="0 0 56 56" fill="none" xmlns="http://www.w3.org/2000/svg">
<g filter="url(#filter0_d_20_9)">
<circle cx="28" cy="24" r="20" fill="white"/>
</g>
<g clip-path="url(#clip0_20_9)">
<path d="M23.998 18C23.4458 18 22.998 18.4477 22.998 19C22.998 19.5523 23.4458 20 23.998 20H30.5838L22.2909 28.2929C21.9004 28.6834 21.9004 29.3166 22.2909 29.7071C22.6815 30.0976 23.3146 30.0976 23.7052 29.7071L31.998 21.4142V28C31.998 28.5523 32.4457 29 32.998 29C33.5503 29 33.998 28.5523 33.998 28V19C33.998 18.4477 33.5503 18 32.998 18H23.998Z" fill="#7E28FF"/>
</g>
<defs>
<filter id="filter0_d_20_9" x="0" y="0" width="56" height="56" filterUnits="userSpaceOnUse" color-interpolation-filters="sRGB">
<feFlood flood-opacity="0" result="BackgroundImageFix"/>
<feColorMatrix in="SourceAlpha" type="matrix" values="0 0 0 0 0 0 0 0 0 0 0 0 0 0 0 0 0 0 127 0" result="hardAlpha"/>
<feOffset dy="4"/>
<feGaussianBlur stdDeviation="4"/>
<feComposite in2="hardAlpha" operator="out"/>
<feColorMatrix type="matrix" values="0 0 0 0 0.133333 0 0 0 0 0.145098 0 0 0 0 0.145098 0 0 0 0.08 0"/>
<feBlend mode="normal" in2="BackgroundImageFix" result="effect1_dropShadow_20_9"/>
<feBlend mode="normal" in="SourceGraphic" in2="effect1_dropShadow_20_9" result="shape"/>
</filter>
<clipPath id="clip0_20_9">
<rect width="24" height="16.414" fill="white" transform="translate(13.5723 26.543) rotate(-45)"/>
</clipPath>
</defs>
</svg>
