<svg width="19" height="18" viewBox="0 0 19 18" fill="none" xmlns="http://www.w3.org/2000/svg">
<path d="M0.851562 2.81458C0.851562 2.23737 1.05427 1.76118 1.45967 1.38601C1.86507 1.01083 2.39211 0.823242 3.04075 0.823242C3.67782 0.823242 4.19326 1.00793 4.58708 1.37735C4.99248 1.75831 5.19519 2.25469 5.19519 2.86653C5.19519 3.42064 4.99829 3.88239 4.60446 4.25181C4.19906 4.63276 3.66623 4.82324 3.006 4.82324H2.98863C2.35156 4.82324 1.83612 4.63276 1.4423 4.25181C1.04847 3.87086 0.851562 3.39178 0.851562 2.81458ZM1.07743 17.9661V6.399H4.93457V17.9661H1.07743ZM7.07164 17.9661H10.9288V11.5072C10.9288 11.1032 10.9751 10.7915 11.0678 10.5722C11.2299 10.1797 11.4761 9.84776 11.8062 9.57649C12.1363 9.3052 12.5504 9.16956 13.0485 9.16956C14.3458 9.16956 14.9944 10.0411 14.9944 11.7843V17.9661H18.8516V11.3341C18.8516 9.62554 18.4462 8.32973 17.6353 7.44662C16.8245 6.5635 15.7531 6.12194 14.4211 6.12194C12.9269 6.12194 11.7628 6.76263 10.9288 8.04402V8.07865H10.9114L10.9288 8.04402V6.399H7.07164C7.0948 6.7684 7.10639 7.91702 7.10639 9.84488C7.10639 11.7727 7.0948 14.4798 7.07164 17.9661Z" fill="#7E28FF"/>
</svg>
