<svg width="20" height="26" viewBox="0 0 20 26" fill="none" xmlns="http://www.w3.org/2000/svg">
<path d="M16.8609 14.6558C16.8609 20.0346 11.3517 23.3484 10.2068 23.9795C10.1434 24.0145 10.0722 24.0329 9.99974 24.0329C9.9273 24.0329 9.85605 24.0145 9.79263 23.9795C8.64688 23.3484 3.1394 20.0346 3.1394 14.6558C3.1394 10.3678 5.71219 7.36621 10.0002 7.36621C14.2881 7.36621 16.8609 10.3678 16.8609 14.6558Z" stroke="#7E28FF" stroke-width="1.4" stroke-linecap="round" stroke-linejoin="round"/>
<path d="M6.5697 14.2273C6.5697 15.137 6.93112 16.0096 7.57444 16.6529C8.21776 17.2962 9.09029 17.6576 10.0001 17.6576C10.9099 17.6576 11.7824 17.2962 12.4257 16.6529C13.069 16.0096 13.4305 15.137 13.4305 14.2273C13.4305 13.3175 13.069 12.4449 12.4257 11.8016C11.7824 11.1583 10.9099 10.7969 10.0001 10.7969C9.09029 10.7969 8.21776 11.1583 7.57444 11.8016C6.93112 12.4449 6.5697 13.3175 6.5697 14.2273V14.2273Z" stroke="#7E28FF" stroke-width="1.4" stroke-linecap="round" stroke-linejoin="round"/>
</svg>
